<svg width="25" height="23" viewBox="0 0 25 23" fill="none" xmlns="http://www.w3.org/2000/svg">
<path d="M20.4167 4.0625C20.3125 4.0625 20.2083 4.0625 20.1042 3.95833C18.0208 2.08333 15.3125 1.04167 12.5 1.04167C9.79168 1.04167 7.08335 1.97917 5.00001 3.85417C4.79168 3.95833 4.47918 3.95833 4.27085 3.75C4.06251 3.54167 4.16668 3.22917 4.37501 3.02083C6.56251 1.04167 9.47918 0 12.5 0C15.5208 0 18.5417 1.14583 20.8333 3.125C21.0417 3.33333 21.0417 3.64583 20.8333 3.85417C20.7292 3.95833 20.625 4.0625 20.4167 4.0625Z" fill="white"/>
<path d="M7.81252 4.16667H4.68752C4.37502 4.16667 4.16669 3.95833 4.16669 3.64583V0.520833C4.16669 0.208333 4.37502 0 4.68752 0C5.00002 0 5.20835 0.208333 5.20835 0.520833V3.125H7.81252C8.12502 3.125 8.33335 3.33333 8.33335 3.64583C8.33335 3.95833 8.12502 4.16667 7.81252 4.16667Z" fill="white"/>
<path d="M12.6041 22.9167C9.58331 22.9167 6.56248 21.7708 4.27081 19.7917C4.06248 19.5833 4.06248 19.2708 4.27081 19.0625C4.47915 18.8542 4.79165 18.8542 4.99998 19.0625C7.08331 20.9375 9.79165 21.9792 12.6041 21.9792C15.3125 21.9792 18.0208 21.0417 20.1041 19.1667C20.3125 18.9583 20.625 18.9583 20.8333 19.2708C21.0416 19.4792 21.0416 19.7917 20.7291 20C18.5416 21.875 15.625 22.9167 12.6041 22.9167Z" fill="white"/>
<path d="M20.4166 22.9167C20.1041 22.9167 19.8958 22.7083 19.8958 22.3958V19.7917H17.2916C16.9791 19.7917 16.7708 19.5833 16.7708 19.2708C16.7708 18.9583 16.9791 18.75 17.2916 18.75H20.4166C20.7291 18.75 20.9375 18.9583 20.9375 19.2708V22.3958C20.9375 22.7083 20.7291 22.9167 20.4166 22.9167Z" fill="white"/>
<path d="M5.20835 11.4583C3.75002 11.4583 2.60419 10.3125 2.60419 8.85417C2.60419 7.39583 3.75002 6.25 5.20835 6.25C6.66669 6.25 7.81252 7.39583 7.81252 8.85417C7.81252 10.3125 6.66669 11.4583 5.20835 11.4583ZM5.20835 7.29167C4.37502 7.29167 3.64585 8.02083 3.64585 8.85417C3.64585 9.6875 4.37502 10.4167 5.20835 10.4167C6.04169 10.4167 6.77085 9.6875 6.77085 8.85417C6.77085 8.02083 6.04169 7.29167 5.20835 7.29167Z" fill="white"/>
<path d="M9.89583 16.6667C9.58333 16.6667 9.375 16.4583 9.375 16.1458V15.1042C9.375 14.2708 8.64583 13.5417 7.8125 13.5417H2.60417C1.77083 13.5417 1.04167 14.2708 1.04167 15.1042V16.1458C1.04167 16.4583 0.833333 16.6667 0.520833 16.6667C0.208333 16.6667 0 16.4583 0 16.1458V15.1042C0 13.6458 1.14583 12.5 2.60417 12.5H7.8125C9.27083 12.5 10.4167 13.6458 10.4167 15.1042V16.1458C10.4167 16.4583 10.2083 16.6667 9.89583 16.6667Z" fill="white"/>
<path d="M19.7917 11.4583C18.3333 11.4583 17.1875 10.3125 17.1875 8.85417C17.1875 7.39583 18.3333 6.25 19.7917 6.25C21.25 6.25 22.3958 7.39583 22.3958 8.85417C22.3958 10.3125 21.25 11.4583 19.7917 11.4583ZM19.7917 7.29167C18.9583 7.29167 18.2292 8.02083 18.2292 8.85417C18.2292 9.6875 18.9583 10.4167 19.7917 10.4167C20.625 10.4167 21.3542 9.6875 21.3542 8.85417C21.3542 8.02083 20.625 7.29167 19.7917 7.29167Z" fill="white"/>
<path d="M24.4791 16.6667C24.1666 16.6667 23.9583 16.4583 23.9583 16.1458V15.1042C23.9583 14.2708 23.2291 13.5417 22.3958 13.5417H17.1875C16.3541 13.5417 15.625 14.2708 15.625 15.1042V16.1458C15.625 16.4583 15.4166 16.6667 15.1041 16.6667C14.7916 16.6667 14.5833 16.4583 14.5833 16.1458V15.1042C14.5833 13.6458 15.7291 12.5 17.1875 12.5H22.3958C23.8541 12.5 25 13.6458 25 15.1042V16.1458C25 16.4583 24.7916 16.6667 24.4791 16.6667Z" fill="white"/>
</svg>
