<svg width="25" height="25" viewBox="0 0 25 25" fill="none" xmlns="http://www.w3.org/2000/svg">
<path d="M8.004 13.9057C8.84219 13.1886 9.375 12.1244 9.375 10.9375C9.375 8.78359 7.62266 7.03125 5.46875 7.03125C3.31484 7.03125 1.5625 8.78359 1.5625 10.9375C1.5625 12.1244 2.09531 13.1886 2.9335 13.9057C1.19121 14.8212 0 16.649 0 18.75V23.4581C0 23.7943 0.215186 24.0929 0.53418 24.1992C2.12822 24.7306 3.78848 25 5.46875 25C7.14902 25 8.80928 24.7306 10.4033 24.1993C10.7224 24.0929 10.9375 23.7944 10.9375 23.4581V18.75C10.9375 16.649 9.74629 14.8212 8.004 13.9057ZM3.125 10.9375C3.125 9.64517 4.17642 8.59375 5.46875 8.59375C6.76108 8.59375 7.8125 9.64517 7.8125 10.9375C7.8125 12.2298 6.76108 13.2812 5.46875 13.2812C4.17642 13.2812 3.125 12.2298 3.125 10.9375ZM9.375 22.883C6.83608 23.616 4.10142 23.616 1.5625 22.883V18.75C1.5625 16.5961 3.31484 14.8438 5.46875 14.8438C7.62266 14.8438 9.375 16.5961 9.375 18.75V22.883Z" fill="#7F8489"/>
<path d="M22.0665 13.9057C22.9047 13.1886 23.4375 12.1244 23.4375 10.9375C23.4375 8.78359 21.6852 7.03125 19.5312 7.03125C17.3773 7.03125 15.625 8.78359 15.625 10.9375C15.625 12.1244 16.1578 13.1886 16.996 13.9057C15.2537 14.8212 14.0625 16.649 14.0625 18.75V23.4581C14.0625 23.7943 14.2777 24.0929 14.5967 24.1992C16.1907 24.7306 17.851 25 19.5312 25C21.2115 25 22.8718 24.7306 24.4658 24.1993C24.7849 24.0929 25 23.7944 25 23.4581V18.75C25 16.649 23.8088 14.8212 22.0665 13.9057ZM17.1875 10.9375C17.1875 9.64517 18.2389 8.59375 19.5312 8.59375C20.8236 8.59375 21.875 9.64517 21.875 10.9375C21.875 12.2298 20.8236 13.2812 19.5312 13.2812C18.2389 13.2812 17.1875 12.2298 17.1875 10.9375ZM23.4375 22.883C20.8986 23.616 18.1639 23.616 15.625 22.883V18.75C15.625 16.5961 17.3773 14.8438 19.5312 14.8438C21.6852 14.8438 23.4375 16.5961 23.4375 18.75V22.883Z" fill="#7F8489"/>
<path d="M16.6431 3.27881C16.4431 3.27881 16.2431 3.20249 16.0905 3.04985C15.1318 2.09072 13.8567 1.5625 12.5 1.5625C11.1433 1.5625 9.86821 2.09072 8.90947 3.04985C8.60439 3.35503 8.10976 3.35513 7.80463 3.0501C7.49946 2.74507 7.49936 2.25039 7.80439 1.94526C9.05825 0.69082 10.7258 0 12.5 0C14.2742 0 15.9417 0.69082 17.1956 1.94526C17.5007 2.25044 17.5006 2.74507 17.1954 3.0501C17.0429 3.20254 16.8429 3.27881 16.6431 3.27881Z" fill="#7F8489"/>
<path d="M14.71 5.21192C14.51 5.21192 14.3101 5.13565 14.1575 4.98306C13.715 4.54058 13.1264 4.29688 12.5 4.29688C11.8736 4.29688 11.285 4.54058 10.8425 4.98311C10.5374 5.28819 10.0427 5.28824 9.73763 4.98311C9.43251 4.67803 9.43251 4.18335 9.73763 3.87827C10.4752 3.14063 11.4562 2.73438 12.5 2.73438C13.5437 2.73438 14.5248 3.14063 15.2624 3.87827C15.5675 4.1834 15.5675 4.67803 15.2624 4.98311C15.1098 5.13565 14.9099 5.21192 14.71 5.21192Z" fill="#7F8489"/>
<path d="M12.5 8.59375C11.8539 8.59375 11.3281 8.06802 11.3281 7.42188C11.3281 6.77573 11.8539 6.25 12.5 6.25C13.1461 6.25 13.6719 6.77573 13.6719 7.42188C13.6719 8.06802 13.1461 8.59375 12.5 8.59375Z" fill="#7F8489"/>
</svg>
