<svg width="66" height="18" viewBox="0 0 66 18" fill="none" xmlns="http://www.w3.org/2000/svg">
<g filter="url(#filter0_i)">
<path d="M11.2354 16.544C10.2914 17.056 9.23543 17.312 8.06743 17.312C6.99543 17.312 5.98743 17.088 5.04343 16.64C4.09943 16.208 3.26742 15.616 2.54742 14.864C1.84342 14.112 1.28342 13.24 0.867425 12.248C0.467425 11.256 0.267425 10.216 0.267425 9.128C0.267425 8.296 0.371425 7.48 0.579425 6.68C0.803425 5.88 1.11542 5.136 1.51542 4.448C1.91542 3.76 2.40342 3.136 2.97942 2.576C3.57142 2.016 4.22742 1.552 4.94742 1.184L6.29142 1.184L6.29142 2.024L5.18742 2.024C4.57942 2.344 4.01942 2.752 3.50742 3.248C3.01142 3.744 2.58742 4.296 2.23542 4.904C1.88342 5.512 1.61142 6.176 1.41942 6.896C1.22742 7.6 1.13142 8.328 1.13142 9.08C1.13142 10.12 1.31542 11.088 1.68342 11.984C2.06742 12.88 2.57942 13.656 3.21943 14.312C3.85942 14.984 4.60342 15.504 5.45143 15.872C6.29943 16.256 7.20343 16.448 8.16343 16.448C9.04343 16.448 9.88343 16.256 10.6834 15.872L11.2354 16.544ZM8.17692 5.408C7.93692 5.408 7.67292 5.36 7.38492 5.264C7.09692 5.168 6.82492 5.024 6.56892 4.832C6.32892 4.624 6.12092 4.376 5.94492 4.088C5.78492 3.784 5.70492 3.44 5.70492 3.056C5.70492 2.816 5.74492 2.576 5.82492 2.336C5.92092 2.096 6.04892 1.88 6.20892 1.688C6.38492 1.48 6.59292 1.312 6.83292 1.184C7.07292 1.056 7.34492 0.991999 7.64892 0.991999C7.87292 0.991999 8.08892 1.04 8.29692 1.136C8.50492 1.216 8.68892 1.328 8.84892 1.472C9.02492 1.616 9.16092 1.792 9.25692 2C9.35292 2.192 9.40092 2.408 9.40092 2.648C9.40092 3.048 9.25692 3.392 8.96892 3.68C8.69692 3.968 8.36892 4.112 7.98492 4.112C7.68092 4.112 7.40092 4.008 7.14492 3.8C6.88892 3.592 6.76092 3.328 6.76092 3.008C6.76092 2.784 6.84092 2.584 7.00092 2.408C7.17692 2.232 7.38492 2.144 7.62492 2.144C7.84892 2.144 8.04092 2.232 8.20092 2.408C8.36092 2.568 8.45692 2.752 8.48892 2.96L8.51292 2.912C8.54492 2.816 8.56092 2.736 8.56092 2.672C8.56092 2.496 8.48092 2.312 8.32092 2.12C8.17692 1.928 7.96892 1.832 7.69692 1.832C7.34492 1.832 7.06492 1.968 6.85692 2.24C6.64892 2.496 6.54492 2.76 6.54492 3.032C6.54492 3.272 6.59292 3.488 6.68892 3.68C6.80092 3.856 6.92892 4.016 7.07292 4.16C7.23292 4.288 7.40892 4.392 7.60092 4.472C7.79292 4.536 7.98492 4.568 8.17692 4.568C8.73692 4.568 9.18492 4.376 9.52092 3.992C9.85692 3.608 10.0649 3.184 10.1449 2.72C10.0809 2.608 10.0489 2.536 10.0489 2.504L10.6969 2C10.7129 2.016 10.7689 2.096 10.8649 2.24C10.9609 2.384 11.0569 2.576 11.1529 2.816C11.2649 3.056 11.3609 3.344 11.4409 3.68C11.5369 4 11.5849 4.344 11.5849 4.712C11.5849 6.392 10.5769 7.776 8.56092 8.864L13.9369 12.056L13.9369 1.184L15.5929 1.184L15.5929 2.024L14.7769 2.024L14.7769 13.52L6.78492 8.792L7.50492 8.456C9.68092 7.448 10.7689 6.192 10.7689 4.688C10.7689 4.528 10.7609 4.408 10.7449 4.328L10.6489 3.848C10.4409 4.248 10.1049 4.608 9.64092 4.928C9.19292 5.248 8.70492 5.408 8.17692 5.408ZM20.5724 8.144C20.5084 8.48 20.3484 8.76 20.0924 8.984C19.8364 9.192 19.5484 9.296 19.2284 9.296C18.8284 9.296 18.5004 9.168 18.2444 8.912C17.9884 8.64 17.8604 8.312 17.8604 7.928C17.8604 7.512 18.0204 7.152 18.3404 6.848C18.6764 6.544 19.0684 6.392 19.5164 6.392C19.7884 6.392 20.0444 6.448 20.2844 6.56C20.5244 6.672 20.7324 6.824 20.9084 7.016C21.0844 7.208 21.2204 7.432 21.3164 7.688C21.4284 7.928 21.4844 8.192 21.4844 8.48C21.4844 8.848 21.3964 9.176 21.2204 9.464C21.0604 9.752 20.8524 9.992 20.5964 10.184C20.3564 10.376 20.0924 10.52 19.8044 10.616C19.5164 10.712 19.2604 10.76 19.0364 10.76C18.6044 10.76 18.2124 10.672 17.8604 10.496C17.5244 10.304 17.2364 10.064 16.9964 9.776C16.7564 9.488 16.5724 9.168 16.4444 8.816C16.3164 8.464 16.2524 8.12 16.2524 7.784C16.2524 7.288 16.3564 6.84 16.5644 6.44C16.7884 6.024 17.0684 5.672 17.4044 5.384C17.7564 5.08 18.1484 4.848 18.5804 4.688C19.0124 4.528 19.4444 4.448 19.8764 4.448C20.4844 4.448 21.0684 4.616 21.6284 4.952C22.2044 5.272 22.6764 5.664 23.0444 6.128C23.5084 5.76 24.0524 5.576 24.6764 5.576C25.2364 5.576 25.7404 5.728 26.1884 6.032L26.4524 6.272L26.4524 2.024L15.4364 2.024L15.4364 1.184L28.0604 1.184L28.0604 2.024L27.2924 2.024L27.2924 13.976L26.4524 13.976L26.4524 8.048L26.3564 8.024C26.3564 7.608 26.2044 7.24 25.9004 6.92C25.5964 6.584 25.1884 6.416 24.6764 6.416C24.2444 6.416 23.8444 6.576 23.4764 6.896C23.1244 7.2 22.9084 7.584 22.8284 8.048L22.7804 8.36L21.9644 8.288C21.9804 7.76 22.1564 7.24 22.4924 6.728C22.1724 6.312 21.7724 5.968 21.2924 5.696C20.8124 5.424 20.3244 5.288 19.8284 5.288C19.5244 5.288 19.2044 5.352 18.8684 5.48C18.5484 5.592 18.2524 5.76 17.9804 5.984C17.7244 6.208 17.5084 6.48 17.3324 6.8C17.1724 7.104 17.0924 7.44 17.0924 7.808C17.0924 8.048 17.1404 8.288 17.2364 8.528C17.3324 8.768 17.4604 8.992 17.6204 9.2C17.7964 9.408 18.0044 9.576 18.2444 9.704C18.4844 9.832 18.7484 9.896 19.0364 9.896C19.2284 9.896 19.4124 9.864 19.5884 9.8C19.7804 9.736 19.9484 9.64 20.0924 9.512C20.2524 9.384 20.3804 9.232 20.4764 9.056C20.5724 8.864 20.6204 8.656 20.6204 8.432C20.6204 8.368 20.6124 8.312 20.5964 8.264C20.5804 8.2 20.5724 8.136 20.5724 8.072L20.5724 8.144ZM27.448 2.024L27.448 1.184L28.048 1.184C28.624 1.28 29.096 1.52 29.464 1.904L29.464 0.536L30.304 0.536L30.304 1.184L31.072 1.184L31.072 2.024L30.304 2.024L30.304 14L29.464 14L29.464 4.52C29.448 4.04 29.368 3.64 29.224 3.32C29.096 3 28.944 2.744 28.768 2.552C28.592 2.36 28.416 2.224 28.24 2.144C28.064 2.064 27.928 2.024 27.832 2.024L27.448 2.024ZM43.6431 5.792C43.6431 6.176 43.5071 6.504 43.2351 6.776C42.9631 7.048 42.6351 7.184 42.2511 7.184C41.8671 7.184 41.5311 7.048 41.2431 6.776C40.9711 6.504 40.8351 6.176 40.8351 5.792C40.8351 5.536 40.8911 5.312 41.0031 5.12C41.1311 4.912 41.2831 4.744 41.4591 4.616C41.6351 4.472 41.8271 4.368 42.0351 4.304C42.2591 4.24 42.4591 4.208 42.6351 4.208C42.9391 4.208 43.2191 4.28 43.4751 4.424C43.7311 4.552 43.9471 4.728 44.1231 4.952C44.3151 5.16 44.4591 5.4 44.5551 5.672C44.6671 5.928 44.7231 6.192 44.7231 6.464C44.7231 6.816 44.6431 7.144 44.4831 7.448C44.3391 7.752 44.1391 8.016 43.8831 8.24C43.6271 8.464 43.3391 8.64 43.0191 8.768C42.6991 8.896 42.3711 8.96 42.0351 8.96C41.5711 8.96 41.1551 8.864 40.7871 8.672C40.4191 8.464 40.0991 8.208 39.8271 7.904C39.5711 7.584 39.3711 7.232 39.2271 6.848C39.0831 6.448 39.0111 6.064 39.0111 5.696C39.0111 5.232 39.1071 4.792 39.2991 4.376C39.4911 3.96 39.7471 3.592 40.0671 3.272C40.3871 2.936 40.7551 2.664 41.1711 2.456C41.5871 2.232 42.0271 2.088 42.4911 2.024L36.1791 2.024L36.1791 1.184L47.8671 1.184L47.8671 2.024L43.4751 2.024C44.0671 2.104 44.6111 2.296 45.1071 2.6C45.6031 2.904 46.0271 3.28 46.3791 3.728C46.7311 4.176 47.0031 4.68 47.1951 5.24C47.3871 5.784 47.4831 6.336 47.4831 6.896C47.4831 7.696 47.3071 8.432 46.9551 9.104C46.6191 9.776 46.1631 10.36 45.5871 10.856C45.0271 11.336 44.3871 11.712 43.6671 11.984C42.9471 12.256 42.2191 12.392 41.4831 12.392C40.9391 12.392 40.4351 12.336 39.9711 12.224L40.2591 12.416C41.8591 13.488 43.5551 14.024 45.3471 14.024C45.9871 14.024 46.6431 13.952 47.3151 13.808L47.4831 14.624C46.7791 14.768 46.0751 14.84 45.3711 14.84C44.4111 14.84 43.4591 14.696 42.5151 14.408C41.5711 14.136 40.6511 13.696 39.7551 13.088C39.3071 12.784 38.9071 12.48 38.5551 12.176C38.2191 11.872 37.9311 11.6 37.6911 11.36C37.4511 11.12 37.2671 10.928 37.1391 10.784C37.0271 10.624 36.9631 10.528 36.9471 10.496L37.5951 9.944C38.7151 11.016 40.0111 11.552 41.4831 11.552C42.1071 11.552 42.7231 11.44 43.3311 11.216C43.9551 10.992 44.5071 10.68 44.9871 10.28C45.4831 9.864 45.8831 9.376 46.1871 8.816C46.4911 8.24 46.6431 7.6 46.6431 6.896C46.6431 6.4 46.5551 5.912 46.3791 5.432C46.2031 4.936 45.9551 4.496 45.6351 4.112C45.3151 3.728 44.9311 3.424 44.4831 3.2C44.0351 2.96 43.5391 2.84 42.9951 2.84C42.6111 2.84 42.2271 2.912 41.8431 3.056C41.4751 3.2 41.1391 3.4 40.8351 3.656C40.5471 3.912 40.3071 4.216 40.1151 4.568C39.9391 4.904 39.8511 5.272 39.8511 5.672C39.8511 5.928 39.8991 6.2 39.9951 6.488C40.0911 6.776 40.2271 7.04 40.4031 7.28C40.5951 7.52 40.8271 7.72 41.0991 7.88C41.3711 8.04 41.6831 8.12 42.0351 8.12C42.2591 8.12 42.4831 8.08 42.7071 8C42.9311 7.904 43.1311 7.784 43.3071 7.64C43.4831 7.496 43.6271 7.328 43.7391 7.136C43.8511 6.928 43.9071 6.704 43.9071 6.464C43.9071 6.176 43.8111 5.896 43.6191 5.624C43.6351 5.656 43.6431 5.712 43.6431 5.792ZM59.5401 16.544C58.5961 17.056 57.5401 17.312 56.3721 17.312C55.3001 17.312 54.2921 17.088 53.3481 16.64C52.4041 16.208 51.5721 15.616 50.8521 14.864C50.1481 14.112 49.5881 13.24 49.1721 12.248C48.7721 11.256 48.5721 10.216 48.5721 9.128C48.5721 8.44 48.6441 7.76 48.7881 7.088C48.9481 6.416 49.1641 5.776 49.4361 5.168C49.7241 4.544 50.0761 3.968 50.4921 3.44C50.9081 2.912 51.3801 2.44 51.9081 2.024L47.8281 2.024L47.8281 1.184L53.2521 1.184L53.4921 2.024C52.8841 2.344 52.3241 2.752 51.8121 3.248C51.3161 3.744 50.8921 4.296 50.5401 4.904C50.1881 5.512 49.9161 6.176 49.7241 6.896C49.5321 7.6 49.4361 8.328 49.4361 9.08C49.4361 10.12 49.6201 11.088 49.9881 11.984C50.3721 12.88 50.8841 13.656 51.5241 14.312C52.1641 14.984 52.9081 15.504 53.7561 15.872C54.6041 16.256 55.5081 16.448 56.4681 16.448C57.3481 16.448 58.1881 16.256 58.9881 15.872L59.5401 16.544ZM54.0096 7.592L60.8016 2.024L53.2176 2.024L53.2176 1.184L62.5296 1.184L62.5296 2.024L61.7616 2.024L61.7616 13.976L54.0096 7.592ZM60.9216 12.2L60.9216 2.984L55.3296 7.592L60.9216 12.2ZM63.9411 11.408L63.9411 0.680002L64.7811 0.680002L64.7811 11.408L63.9411 11.408ZM64.3491 13.52C64.1411 13.52 63.9571 13.448 63.7971 13.304C63.6531 13.144 63.5811 12.96 63.5811 12.752C63.5811 12.528 63.6531 12.344 63.7971 12.2C63.9571 12.04 64.1411 11.96 64.3491 11.96C64.5571 11.96 64.7331 12.04 64.8771 12.2C65.0371 12.344 65.1171 12.528 65.1171 12.752C65.1171 12.96 65.0371 13.144 64.8771 13.304C64.7331 13.448 64.5571 13.52 64.3491 13.52Z" fill="#FDFDFD"/>
</g>
<defs>
<filter id="filter0_i" x="0.267395" y="-1.464" width="64.8497" height="18.776" filterUnits="userSpaceOnUse" color-interpolation-filters="sRGB">
<feFlood flood-opacity="0" result="BackgroundImageFix"/>
<feBlend mode="normal" in="SourceGraphic" in2="BackgroundImageFix" result="shape"/>
<feColorMatrix in="SourceAlpha" type="matrix" values="0 0 0 0 0 0 0 0 0 0 0 0 0 0 0 0 0 0 127 0" result="hardAlpha"/>
<feOffset dy="-2"/>
<feGaussianBlur stdDeviation="1"/>
<feComposite in2="hardAlpha" operator="arithmetic" k2="-1" k3="1"/>
<feColorMatrix type="matrix" values="0 0 0 0 0.154359 0 0 0 0 0.174163 0 0 0 0 0.210371 0 0 0 0.2 0"/>
<feBlend mode="normal" in2="shape" result="effect1_innerShadow"/>
</filter>
</defs>
</svg>
