<svg width="164" height="41" viewBox="0 0 164 41" fill="none" xmlns="http://www.w3.org/2000/svg">
<path d="M2.59593 26.168L17.3639 14.052H0.931934V12.232H31.7159V14.052H19.3919V20.396C19.9813 19.7027 20.7439 19.1133 21.6799 18.628C22.6506 18.108 23.6559 17.848 24.6959 17.848C25.4239 17.848 26.1519 17.9867 26.8799 18.264C27.6079 18.5413 28.2666 18.94 28.8559 19.46C29.4453 19.9453 29.9133 20.552 30.2599 21.28C30.6413 21.9733 30.8319 22.7707 30.8319 23.672C30.8319 24.296 30.7106 24.92 30.4679 25.544C30.2253 26.1333 29.8959 26.688 29.4799 27.208C29.0639 27.6933 28.5613 28.092 27.9719 28.404C27.3826 28.6813 26.7239 28.82 25.9959 28.82C25.4759 28.82 24.9559 28.716 24.4359 28.508C23.9159 28.3 23.4479 28.0227 23.0319 27.676C22.6159 27.2947 22.2866 26.8613 22.0439 26.376C21.8013 25.8907 21.6799 25.3533 21.6799 24.764C21.6799 23.828 22.0093 22.996 22.6679 22.268C23.3266 21.54 24.1413 21.176 25.1119 21.176C25.9786 21.176 26.7239 21.488 27.3479 22.112L27.4519 22.216C27.6599 22.424 27.8159 22.6493 27.9199 22.892V22.944C28.0586 23.1867 28.1279 23.464 28.1279 23.776C28.1279 24.4 27.9026 24.9373 27.4519 25.388C27.0359 25.804 26.5159 26.012 25.8919 26.012C25.3719 26.012 24.8866 25.8387 24.4359 25.492C23.9853 25.1107 23.7253 24.608 23.6559 23.984C23.5519 24.2613 23.4999 24.504 23.4999 24.712C23.4999 25.4053 23.7599 25.96 24.2799 26.376C24.8346 26.792 25.4239 27 26.0479 27C26.8453 27 27.5386 26.6707 28.1279 26.012C28.7519 25.3533 29.0639 24.608 29.0639 23.776C29.0639 23.152 28.9253 22.58 28.6479 22.06C28.3706 21.54 28.0066 21.1067 27.5559 20.76C27.1399 20.4133 26.6719 20.1533 26.1519 19.98C25.6319 19.772 25.1293 19.668 24.6439 19.668C23.8813 19.668 23.1879 19.824 22.5639 20.136C21.9746 20.448 21.4546 20.8467 21.0039 21.332C20.5533 21.8173 20.1893 22.3893 19.9119 23.048C19.6346 23.672 19.4613 24.296 19.3919 24.92V40L2.59593 26.168ZM17.5719 36.152V16.184L5.45593 26.168L17.5719 36.152ZM29.9582 14.052V12.232H31.2582C32.5062 12.44 33.5289 12.96 34.3262 13.792V10.828H36.1462V12.232H37.8102V14.052H36.1462V40H34.3262V19.46C34.2916 18.42 34.1182 17.5533 33.8062 16.86C33.5289 16.1667 33.1996 15.612 32.8182 15.196C32.4369 14.78 32.0556 14.4853 31.6742 14.312C31.2929 14.1387 30.9982 14.052 30.7902 14.052H29.9582ZM47.1862 36.516C44.6556 36.516 42.3156 35.5453 40.1662 33.604L39.9062 33.344V14.052H37.2022V12.232H48.9542C50.1329 12.0587 51.1556 11.6947 52.0222 11.14C52.9236 10.5853 53.3742 9.75333 53.3742 8.644C53.3742 7.63866 53.0102 6.928 52.2822 6.512C51.5889 6.096 50.8436 5.888 50.0462 5.888C49.9422 5.888 49.8209 5.90533 49.6822 5.94C49.5782 5.94 49.4569 5.94 49.3182 5.94C48.3129 6.11333 47.3596 6.408 46.4582 6.824C45.5569 7.24 44.6556 7.656 43.7542 8.072C42.8876 8.488 42.0209 8.86933 41.1542 9.216C40.2876 9.528 39.4036 9.684 38.5022 9.684C37.9129 9.684 37.3236 9.59733 36.7342 9.424C36.1102 9.216 35.5556 8.92133 35.0702 8.54C34.5502 8.124 34.1342 7.62133 33.8222 7.032C33.5102 6.44267 33.3542 5.732 33.3542 4.9C33.3542 3.89466 33.6142 2.976 34.1342 2.144C34.6542 1.27733 35.4169 0.601333 36.4222 0.116L37.1502 1.78C36.5262 2.05733 36.0409 2.47333 35.6942 3.028C35.3129 3.548 35.1222 4.15466 35.1222 4.848C35.1222 5.92266 35.4862 6.70266 36.2142 7.188C36.9422 7.67333 37.7222 7.916 38.5542 7.916C39.3862 7.916 40.2356 7.72533 41.1022 7.344C42.0036 6.928 42.9396 6.49466 43.9102 6.044C44.8809 5.55866 45.8862 5.12533 46.9262 4.744C47.9662 4.328 49.0582 4.12 50.2022 4.12C50.7569 4.12 51.3289 4.20666 51.9182 4.38C52.5076 4.51866 53.0449 4.77866 53.5302 5.16C54.0156 5.50667 54.4142 5.97467 54.7262 6.564C55.0382 7.11867 55.1942 7.79467 55.1942 8.592C55.1942 9.28533 55.0382 9.96133 54.7262 10.62C54.4489 11.244 54.0502 11.7813 53.5302 12.232H58.2622V14.052H41.7262V32.564C43.3556 33.9853 45.1582 34.696 47.1342 34.696C48.1049 34.696 49.0409 34.5227 49.9422 34.176C50.8782 33.8293 51.7102 33.3613 52.4382 32.772C53.1662 32.148 53.7382 31.42 54.1542 30.588C54.6049 29.756 54.8302 28.8547 54.8302 27.884C54.8302 27.2253 54.6916 26.5493 54.4142 25.856C54.1716 25.128 53.8076 24.4867 53.3222 23.932C52.8716 23.3427 52.3169 22.8747 51.6582 22.528C51.0342 22.1467 50.3236 21.956 49.5262 21.956C49.0062 21.956 48.4689 22.06 47.9142 22.268C47.3596 22.4413 46.8569 22.7187 46.4062 23.1C45.9902 23.4467 45.6436 23.88 45.3662 24.4C45.0889 24.8853 44.9502 25.44 44.9502 26.064C44.9502 26.4453 45.0196 26.844 45.1582 27.26C45.2969 27.6413 45.5049 28.0053 45.7822 28.352C46.0596 28.664 46.3716 28.924 46.7182 29.132C47.0996 29.34 47.5329 29.444 48.0182 29.444C48.6076 29.444 49.1796 29.2533 49.7342 28.872C50.3236 28.456 50.6182 27.9013 50.6182 27.208V26.948C50.1676 27.988 49.4049 28.508 48.3302 28.508C47.6369 28.508 47.0649 28.2653 46.6142 27.78C46.1636 27.26 45.9382 26.7053 45.9382 26.116C45.9382 25.3533 46.2676 24.7293 46.9262 24.244C47.5849 23.7587 48.2609 23.516 48.9542 23.516C49.4742 23.516 49.9422 23.6373 50.3582 23.88C50.8089 24.088 51.1902 24.3653 51.5022 24.712C51.8142 25.0587 52.0396 25.4573 52.1782 25.908C52.3516 26.3587 52.4382 26.792 52.4382 27.208C52.4382 27.7973 52.2996 28.3347 52.0222 28.82C51.7449 29.3053 51.3982 29.7387 50.9822 30.12C50.5662 30.4667 50.0982 30.744 49.5782 30.952C49.0582 31.16 48.5382 31.264 48.0182 31.264C47.3249 31.264 46.6836 31.108 46.0942 30.796C45.5049 30.484 44.9849 30.0853 44.5342 29.6C44.1182 29.08 43.7889 28.508 43.5462 27.884C43.3036 27.26 43.1822 26.636 43.1822 26.012C43.1822 25.18 43.3729 24.4 43.7542 23.672C44.1356 22.944 44.6209 22.32 45.2102 21.8C45.8342 21.28 46.5102 20.8813 47.2382 20.604C48.0009 20.292 48.7462 20.136 49.4742 20.136C50.5142 20.136 51.4676 20.3787 52.3342 20.864C53.2009 21.3147 53.9462 21.904 54.5702 22.632C55.1942 23.36 55.6796 24.192 56.0262 25.128C56.4076 26.0293 56.5982 26.948 56.5982 27.884C56.5982 29.132 56.3209 30.2933 55.7662 31.368C55.2116 32.408 54.4836 33.3093 53.5822 34.072C52.6809 34.8347 51.6756 35.4413 50.5662 35.892C49.4569 36.308 48.3302 36.516 47.1862 36.516ZM55.7168 14.052V12.232H57.0168C58.2648 12.44 59.2875 12.96 60.0848 13.792V10.828H61.9048V12.232H63.5688V14.052H61.9048V40H60.0848V19.46C60.0502 18.42 59.8768 17.5533 59.5648 16.86C59.2875 16.1667 58.9582 15.612 58.5768 15.196C58.1955 14.78 57.8142 14.4853 57.4328 14.312C57.0515 14.1387 56.7568 14.052 56.5488 14.052H55.7168ZM87.9783 13.428L75.3423 40.572L73.6783 39.792L86.3143 12.648L87.9783 13.428ZM100.495 26.168L115.263 14.052H98.8311V12.232H129.615V14.052H117.291V20.396C117.88 19.7027 118.643 19.1133 119.579 18.628C120.55 18.108 121.555 17.848 122.595 17.848C123.323 17.848 124.051 17.9867 124.779 18.264C125.507 18.5413 126.166 18.94 126.755 19.46C127.344 19.9453 127.812 20.552 128.159 21.28C128.54 21.9733 128.731 22.7707 128.731 23.672C128.731 24.296 128.61 24.92 128.367 25.544C128.124 26.1333 127.795 26.688 127.379 27.208C126.963 27.6933 126.46 28.092 125.871 28.404C125.282 28.6813 124.623 28.82 123.895 28.82C123.375 28.82 122.855 28.716 122.335 28.508C121.815 28.3 121.347 28.0227 120.931 27.676C120.515 27.2947 120.186 26.8613 119.943 26.376C119.7 25.8907 119.579 25.3533 119.579 24.764C119.579 23.828 119.908 22.996 120.567 22.268C121.226 21.54 122.04 21.176 123.011 21.176C123.878 21.176 124.623 21.488 125.247 22.112L125.351 22.216C125.559 22.424 125.715 22.6493 125.819 22.892V22.944C125.958 23.1867 126.027 23.464 126.027 23.776C126.027 24.4 125.802 24.9373 125.351 25.388C124.935 25.804 124.415 26.012 123.791 26.012C123.271 26.012 122.786 25.8387 122.335 25.492C121.884 25.1107 121.624 24.608 121.555 23.984C121.451 24.2613 121.399 24.504 121.399 24.712C121.399 25.4053 121.659 25.96 122.179 26.376C122.734 26.792 123.323 27 123.947 27C124.744 27 125.438 26.6707 126.027 26.012C126.651 25.3533 126.963 24.608 126.963 23.776C126.963 23.152 126.824 22.58 126.547 22.06C126.27 21.54 125.906 21.1067 125.455 20.76C125.039 20.4133 124.571 20.1533 124.051 19.98C123.531 19.772 123.028 19.668 122.543 19.668C121.78 19.668 121.087 19.824 120.463 20.136C119.874 20.448 119.354 20.8467 118.903 21.332C118.452 21.8173 118.088 22.3893 117.811 23.048C117.534 23.672 117.36 24.296 117.291 24.92V40L100.495 26.168ZM115.471 36.152V16.184L103.355 26.168L115.471 36.152ZM127.857 14.052V12.232H129.157C130.405 12.44 131.428 12.96 132.225 13.792V10.828H134.045V12.232H135.709V14.052H134.045V40H132.225V19.46C132.191 18.42 132.017 17.5533 131.705 16.86C131.428 16.1667 131.099 15.612 130.717 15.196C130.336 14.78 129.955 14.4853 129.573 14.312C129.192 14.1387 128.897 14.052 128.689 14.052H127.857ZM138.325 40.104V14.052H135.049V12.232H138.325V11.192C136.765 10.984 135.396 10.2213 134.217 8.904L135.621 7.812C136.592 8.88667 137.857 9.424 139.417 9.424C140.319 9.424 141.151 9.30267 141.913 9.06C142.711 8.81733 143.456 8.50533 144.149 8.124C144.843 7.708 145.501 7.24 146.125 6.72C146.784 6.2 147.425 5.68 148.049 5.16C148.604 4.67467 149.211 4.172 149.869 3.652C150.563 3.132 151.256 2.664 151.949 2.248C152.677 1.79733 153.405 1.43333 154.133 1.156C154.896 0.878665 155.641 0.739998 156.369 0.739998C157.201 0.739998 158.016 0.878665 158.813 1.156C159.611 1.43333 160.321 1.832 160.945 2.352C161.569 2.83733 162.072 3.42666 162.453 4.12C162.835 4.77867 163.025 5.48933 163.025 6.252C163.025 6.876 162.904 7.5 162.661 8.124C162.419 8.71333 162.072 9.25067 161.621 9.736C161.205 10.1867 160.703 10.568 160.113 10.88C159.559 11.1573 158.952 11.296 158.293 11.296C157.877 11.296 157.427 11.2093 156.941 11.036C156.456 10.8627 156.005 10.62 155.589 10.308C155.173 9.96133 154.827 9.54533 154.549 9.06C154.272 8.57467 154.133 8.00267 154.133 7.344C154.133 6.928 154.203 6.52933 154.341 6.148C154.515 5.732 154.74 5.35066 155.017 5.004C155.329 4.65733 155.676 4.38 156.057 4.172C156.473 3.964 156.941 3.86 157.461 3.86C158.189 3.86 158.865 4.12 159.489 4.64C160.113 5.16 160.425 5.76667 160.425 6.46C160.425 7.01467 160.217 7.48267 159.801 7.864C159.42 8.24533 158.969 8.436 158.449 8.436C157.895 8.436 157.409 8.24533 156.993 7.864C156.612 7.48267 156.421 7.01467 156.421 6.46V6.148C156.283 6.28667 156.161 6.46 156.057 6.668C155.953 6.876 155.901 7.084 155.901 7.292C155.901 7.98533 156.161 8.54 156.681 8.956C157.201 9.33733 157.721 9.528 158.241 9.528C159.108 9.528 159.819 9.18133 160.373 8.488C160.928 7.76 161.205 6.99733 161.205 6.2C161.205 5.61066 161.049 5.09066 160.737 4.64C160.425 4.18933 160.027 3.808 159.541 3.496C159.056 3.184 158.536 2.94133 157.981 2.768C157.427 2.59467 156.889 2.508 156.369 2.508C155.641 2.508 155.017 2.62933 154.497 2.872C153.319 3.46133 152.192 4.20667 151.117 5.108C150.043 6.00933 148.951 6.89333 147.841 7.76C146.732 8.592 145.553 9.33733 144.305 9.996C143.057 10.6547 141.671 11.0533 140.145 11.192V12.232H141.809V14.052H140.145V40.104H138.325ZM151.185 36.516C148.655 36.516 146.315 35.5453 144.165 33.604L143.905 33.344V14.052H141.201V12.232H152.953C154.132 12.0587 155.155 11.6947 156.021 11.14C156.923 10.5853 157.373 9.75333 157.373 8.644C157.373 7.63866 157.009 6.928 156.281 6.512C155.588 6.096 154.843 5.888 154.045 5.888C153.941 5.888 153.82 5.90533 153.681 5.94C153.577 5.94 153.456 5.94 153.317 5.94C152.312 6.11333 151.359 6.408 150.457 6.824C149.556 7.24 148.655 7.656 147.753 8.072C146.887 8.488 146.02 8.86933 145.153 9.216C144.287 9.528 143.403 9.684 142.501 9.684C141.912 9.684 141.323 9.59733 140.733 9.424C140.109 9.216 139.555 8.92133 139.069 8.54C138.549 8.124 138.133 7.62133 137.821 7.032C137.509 6.44267 137.353 5.732 137.353 4.9C137.353 3.89466 137.613 2.976 138.133 2.144C138.653 1.27733 139.416 0.601333 140.421 0.116L141.149 1.78C140.525 2.05733 140.04 2.47333 139.693 3.028C139.312 3.548 139.121 4.15466 139.121 4.848C139.121 5.92266 139.485 6.70266 140.213 7.188C140.941 7.67333 141.721 7.916 142.553 7.916C143.385 7.916 144.235 7.72533 145.101 7.344C146.003 6.928 146.939 6.49466 147.909 6.044C148.88 5.55866 149.885 5.12533 150.925 4.744C151.965 4.328 153.057 4.12 154.201 4.12C154.756 4.12 155.328 4.20666 155.917 4.38C156.507 4.51866 157.044 4.77866 157.529 5.16C158.015 5.50667 158.413 5.97467 158.725 6.564C159.037 7.11867 159.193 7.79467 159.193 8.592C159.193 9.28533 159.037 9.96133 158.725 10.62C158.448 11.244 158.049 11.7813 157.529 12.232H162.261V14.052H145.725V32.564C147.355 33.9853 149.157 34.696 151.133 34.696C152.104 34.696 153.04 34.5227 153.941 34.176C154.877 33.8293 155.709 33.3613 156.437 32.772C157.165 32.148 157.737 31.42 158.153 30.588C158.604 29.756 158.829 28.8547 158.829 27.884C158.829 27.2253 158.691 26.5493 158.413 25.856C158.171 25.128 157.807 24.4867 157.321 23.932C156.871 23.3427 156.316 22.8747 155.657 22.528C155.033 22.1467 154.323 21.956 153.525 21.956C153.005 21.956 152.468 22.06 151.913 22.268C151.359 22.4413 150.856 22.7187 150.405 23.1C149.989 23.4467 149.643 23.88 149.365 24.4C149.088 24.8853 148.949 25.44 148.949 26.064C148.949 26.4453 149.019 26.844 149.157 27.26C149.296 27.6413 149.504 28.0053 149.781 28.352C150.059 28.664 150.371 28.924 150.717 29.132C151.099 29.34 151.532 29.444 152.017 29.444C152.607 29.444 153.179 29.2533 153.733 28.872C154.323 28.456 154.617 27.9013 154.617 27.208V26.948C154.167 27.988 153.404 28.508 152.329 28.508C151.636 28.508 151.064 28.2653 150.613 27.78C150.163 27.26 149.937 26.7053 149.937 26.116C149.937 25.3533 150.267 24.7293 150.925 24.244C151.584 23.7587 152.26 23.516 152.953 23.516C153.473 23.516 153.941 23.6373 154.357 23.88C154.808 24.088 155.189 24.3653 155.501 24.712C155.813 25.0587 156.039 25.4573 156.177 25.908C156.351 26.3587 156.437 26.792 156.437 27.208C156.437 27.7973 156.299 28.3347 156.021 28.82C155.744 29.3053 155.397 29.7387 154.981 30.12C154.565 30.4667 154.097 30.744 153.577 30.952C153.057 31.16 152.537 31.264 152.017 31.264C151.324 31.264 150.683 31.108 150.093 30.796C149.504 30.484 148.984 30.0853 148.533 29.6C148.117 29.08 147.788 28.508 147.545 27.884C147.303 27.26 147.181 26.636 147.181 26.012C147.181 25.18 147.372 24.4 147.753 23.672C148.135 22.944 148.62 22.32 149.209 21.8C149.833 21.28 150.509 20.8813 151.237 20.604C152 20.292 152.745 20.136 153.473 20.136C154.513 20.136 155.467 20.3787 156.333 20.864C157.2 21.3147 157.945 21.904 158.569 22.632C159.193 23.36 159.679 24.192 160.025 25.128C160.407 26.0293 160.597 26.948 160.597 27.884C160.597 29.132 160.32 30.2933 159.765 31.368C159.211 32.408 158.483 33.3093 157.581 34.072C156.68 34.8347 155.675 35.4413 154.565 35.892C153.456 36.308 152.329 36.516 151.185 36.516Z" fill="#854FC8"/>
</svg>
