<svg width="105" height="39" viewBox="0 0 105 39" fill="none" xmlns="http://www.w3.org/2000/svg">
<path d="M2.8063 1.08L16.4303 18.448L30.0543 1.08H32.1343L17.4183 19.8L31.7183 38H29.6383L16.4303 21.152L3.2223 38H1.0383L15.3383 19.8L0.622297 1.08H2.8063ZM48.9872 25.052V20.32H50.5992V25.052H48.9872ZM87.2478 38.26C84.6825 38.26 82.3425 37.7227 80.2278 36.648C78.1131 35.5733 76.2931 34.1693 74.7678 32.436C73.2425 30.7027 72.0638 28.7093 71.2318 26.456C70.3998 24.2027 69.9838 21.8973 69.9838 19.54C69.9838 17.0787 70.4171 14.7213 71.2838 12.468C72.1851 10.2147 73.3985 8.22133 74.9238 6.488C76.4838 4.75467 78.3038 3.38533 80.3838 2.38C82.4985 1.34 84.7865 0.819998 87.2478 0.819998C89.8131 0.819998 92.1531 1.37467 94.2678 2.484C96.3825 3.55867 98.1851 4.98 99.6758 6.748C101.201 8.516 102.38 10.5267 103.212 12.78C104.044 14.9987 104.46 17.252 104.46 19.54C104.46 22.036 104.009 24.4107 103.108 26.664C102.241 28.9173 101.028 30.9107 99.4678 32.644C97.9425 34.3427 96.1225 35.712 94.0078 36.752C91.9278 37.7573 89.6745 38.26 87.2478 38.26ZM71.8038 19.54C71.8038 21.7587 72.1851 23.8907 72.9478 25.936C73.7105 27.9813 74.7678 29.8013 76.1198 31.396C77.5065 32.956 79.1358 34.204 81.0078 35.14C82.9145 36.076 84.9945 36.544 87.2478 36.544C89.5705 36.544 91.6678 36.0587 93.5398 35.088C95.4465 34.0827 97.0758 32.7827 98.4278 31.188C99.7798 29.5933 100.82 27.7733 101.548 25.728C102.276 23.6827 102.64 21.62 102.64 19.54C102.64 17.3213 102.241 15.1893 101.444 13.144C100.681 11.0987 99.6065 9.296 98.2198 7.736C96.8678 6.14133 95.2385 4.876 93.3318 3.94C91.4598 3.004 89.4318 2.536 87.2478 2.536C84.9251 2.536 82.8105 3.03866 80.9038 4.044C79.0318 5.01467 77.4198 6.29733 76.0678 7.892C74.7158 9.48666 73.6585 11.3067 72.8958 13.352C72.1678 15.3627 71.8038 17.4253 71.8038 19.54Z" fill="url(#paint0_linear)"/>
<defs>
<linearGradient id="paint0_linear" x1="189.877" y1="36" x2="114.466" y2="-85.5904" gradientUnits="userSpaceOnUse">
<stop stop-color="#854FC8"/>
<stop offset="1" stop-color="#784AC1"/>
</linearGradient>
</defs>
</svg>
